<mxfile host="Electron" modified="2023-10-29T11:29:08.042Z" agent="Mozilla/5.0 (Windows NT 10.0; Win64; x64) AppleWebKit/537.36 (KHTML, like Gecko) draw.io/21.2.8 Chrome/112.0.5615.165 Electron/24.2.0 Safari/537.36" etag="Q4FLXirZqanY0Wfx-Yf_" version="21.2.8" type="device">
  <diagram name="Page-1" id="ApCEoCSF7Zbrgg8VlHuO">
    <mxGraphModel dx="826" dy="618" grid="1" gridSize="10" guides="1" tooltips="1" connect="1" arrows="1" fold="1" page="1" pageScale="1" pageWidth="827" pageHeight="1169" math="0" shadow="0">
      <root>
        <mxCell id="0" />
        <mxCell id="1" parent="0" />
        <mxCell id="YjLcqMz40RmJ2IVHthG--5" value="" style="rounded=0;whiteSpace=wrap;html=1;dashed=1;strokeWidth=2;" vertex="1" parent="1">
          <mxGeometry x="20" y="90" width="180" height="320" as="geometry" />
        </mxCell>
        <mxCell id="YjLcqMz40RmJ2IVHthG--1" value="&lt;font style=&quot;font-size: 14px;&quot;&gt;写入Startup事件&lt;br&gt;到事件队列&lt;/font&gt;" style="rounded=0;whiteSpace=wrap;html=1;fillColor=#cce5ff;strokeColor=#36393d;strokeWidth=2;" vertex="1" parent="1">
          <mxGeometry x="50" y="150" width="120" height="60" as="geometry" />
        </mxCell>
        <mxCell id="YjLcqMz40RmJ2IVHthG--2" value="&lt;font style=&quot;font-size: 14px;&quot;&gt;启动事件处理线程&lt;/font&gt;" style="rounded=0;whiteSpace=wrap;html=1;fillColor=#cce5ff;strokeColor=#36393d;strokeWidth=2;" vertex="1" parent="1">
          <mxGeometry x="50" y="240" width="120" height="60" as="geometry" />
        </mxCell>
        <mxCell id="YjLcqMz40RmJ2IVHthG--3" value="&lt;font style=&quot;font-size: 14px;&quot;&gt;启动ZKController变更监听器&lt;/font&gt;" style="rounded=0;whiteSpace=wrap;html=1;fillColor=#cce5ff;strokeColor=#36393d;strokeWidth=2;" vertex="1" parent="1">
          <mxGeometry x="50" y="330" width="120" height="60" as="geometry" />
        </mxCell>
        <mxCell id="YjLcqMz40RmJ2IVHthG--4" value="&lt;b&gt;&lt;font style=&quot;font-size: 16px;&quot;&gt;首次启动&lt;/font&gt;&lt;/b&gt;" style="text;html=1;align=center;verticalAlign=middle;resizable=0;points=[];autosize=1;strokeColor=none;fillColor=none;" vertex="1" parent="1">
          <mxGeometry x="65" y="109" width="90" height="30" as="geometry" />
        </mxCell>
        <mxCell id="YjLcqMz40RmJ2IVHthG--6" value="" style="rounded=0;whiteSpace=wrap;html=1;dashed=1;strokeWidth=2;" vertex="1" parent="1">
          <mxGeometry x="252" y="89" width="180" height="320" as="geometry" />
        </mxCell>
        <mxCell id="YjLcqMz40RmJ2IVHthG--9" value="&lt;font style=&quot;font-size: 14px;&quot;&gt;监听到相应事件&lt;/font&gt;" style="rounded=0;whiteSpace=wrap;html=1;fillColor=#cce5ff;strokeColor=#36393d;strokeWidth=2;" vertex="1" parent="1">
          <mxGeometry x="282" y="329" width="120" height="60" as="geometry" />
        </mxCell>
        <mxCell id="YjLcqMz40RmJ2IVHthG--10" value="&lt;span style=&quot;font-size: 16px;&quot;&gt;&lt;b&gt;controller&lt;br&gt;节点消失&lt;br&gt;&lt;/b&gt;&lt;/span&gt;" style="text;html=1;align=center;verticalAlign=middle;resizable=0;points=[];autosize=1;strokeColor=none;fillColor=none;" vertex="1" parent="1">
          <mxGeometry x="292" y="98" width="100" height="50" as="geometry" />
        </mxCell>
        <mxCell id="YjLcqMz40RmJ2IVHthG--11" value="" style="rounded=0;whiteSpace=wrap;html=1;dashed=1;strokeWidth=2;" vertex="1" parent="1">
          <mxGeometry x="482" y="89" width="180" height="320" as="geometry" />
        </mxCell>
        <mxCell id="YjLcqMz40RmJ2IVHthG--12" value="&lt;font style=&quot;font-size: 14px;&quot;&gt;监听到相应事件&lt;/font&gt;" style="rounded=0;whiteSpace=wrap;html=1;fillColor=#cce5ff;strokeColor=#36393d;strokeWidth=2;" vertex="1" parent="1">
          <mxGeometry x="512" y="240" width="120" height="60" as="geometry" />
        </mxCell>
        <mxCell id="YjLcqMz40RmJ2IVHthG--13" value="&lt;span style=&quot;font-size: 16px;&quot;&gt;&lt;b&gt;controller&lt;br&gt;节点消失&lt;br&gt;&lt;/b&gt;&lt;/span&gt;" style="text;html=1;align=center;verticalAlign=middle;resizable=0;points=[];autosize=1;strokeColor=none;fillColor=none;" vertex="1" parent="1">
          <mxGeometry x="522" y="98" width="100" height="50" as="geometry" />
        </mxCell>
        <mxCell id="YjLcqMz40RmJ2IVHthG--14" value="&lt;font style=&quot;font-size: 14px;&quot;&gt;卸任Controller&lt;/font&gt;" style="rounded=0;whiteSpace=wrap;html=1;fillColor=#cce5ff;strokeColor=#36393d;strokeWidth=2;" vertex="1" parent="1">
          <mxGeometry x="512" y="329" width="120" height="60" as="geometry" />
        </mxCell>
        <mxCell id="YjLcqMz40RmJ2IVHthG--15" value="&lt;font style=&quot;font-size: 14px;&quot;&gt;选举Controller&lt;/font&gt;" style="rounded=0;whiteSpace=wrap;html=1;fillColor=#cce5ff;strokeColor=#36393d;strokeWidth=2;" vertex="1" parent="1">
          <mxGeometry x="282" y="481" width="120" height="60" as="geometry" />
        </mxCell>
        <mxCell id="YjLcqMz40RmJ2IVHthG--18" value="" style="endArrow=classic;html=1;rounded=0;exitX=0.5;exitY=1;exitDx=0;exitDy=0;entryX=0.5;entryY=0;entryDx=0;entryDy=0;strokeWidth=2;" edge="1" parent="1" source="YjLcqMz40RmJ2IVHthG--5" target="YjLcqMz40RmJ2IVHthG--15">
          <mxGeometry width="50" height="50" relative="1" as="geometry">
            <mxPoint x="370" y="410" as="sourcePoint" />
            <mxPoint x="420" y="360" as="targetPoint" />
          </mxGeometry>
        </mxCell>
        <mxCell id="YjLcqMz40RmJ2IVHthG--19" value="" style="endArrow=classic;html=1;rounded=0;exitX=0.5;exitY=1;exitDx=0;exitDy=0;entryX=0.5;entryY=0;entryDx=0;entryDy=0;strokeWidth=2;" edge="1" parent="1" source="YjLcqMz40RmJ2IVHthG--6" target="YjLcqMz40RmJ2IVHthG--15">
          <mxGeometry width="50" height="50" relative="1" as="geometry">
            <mxPoint x="370" y="410" as="sourcePoint" />
            <mxPoint x="420" y="360" as="targetPoint" />
          </mxGeometry>
        </mxCell>
        <mxCell id="YjLcqMz40RmJ2IVHthG--20" value="" style="endArrow=classic;html=1;rounded=0;exitX=0.5;exitY=1;exitDx=0;exitDy=0;entryX=0.5;entryY=0;entryDx=0;entryDy=0;strokeWidth=2;" edge="1" parent="1" source="YjLcqMz40RmJ2IVHthG--11" target="YjLcqMz40RmJ2IVHthG--15">
          <mxGeometry width="50" height="50" relative="1" as="geometry">
            <mxPoint x="370" y="410" as="sourcePoint" />
            <mxPoint x="420" y="360" as="targetPoint" />
          </mxGeometry>
        </mxCell>
      </root>
    </mxGraphModel>
  </diagram>
</mxfile>
